<svg width="104" height="32" viewBox="0 0 104 32" fill="none" xmlns="http://www.w3.org/2000/svg">
<g clip-path="url(#clip0_484_26566)">
<rect width="32" height="32" fill="#1E4C2F"/>
<path d="M10.959 12.5671C11.1739 11.093 12.4379 10 13.9276 10H22.0724C23.5621 10 24.8261 11.093 25.041 12.5671L26.4994 22.5671C26.7633 24.3771 25.3599 26 23.5308 26H12.4692C10.6401 26 9.23667 24.3771 9.50063 22.5671L10.959 12.5671Z" fill="#143C23"/>
<path d="M8.95897 10.5671C9.17393 9.09304 10.4379 8 11.9276 8H20.0724C21.5621 8 22.8261 9.09304 23.041 10.5671L24.4994 20.5671C24.7633 22.3771 23.3599 24 21.5308 24H10.4692C8.64006 24 7.23667 22.3771 7.50063 20.5671L8.95897 10.5671Z" fill="white"/>
<path d="M19.3256 14C19.7288 14 20.0623 14.3294 19.9901 14.7261C19.9387 15.0086 19.8573 15.2855 19.7469 15.552C19.5431 16.0441 19.2444 16.4912 18.8678 16.8678C18.4912 17.2444 18.0441 17.5431 17.552 17.7469C17.06 17.9507 16.5326 18.0556 16 18.0556C15.4674 18.0556 14.94 17.9507 14.448 17.7469C13.9559 17.5431 13.5088 17.2444 13.1322 16.8678C12.7556 16.4912 12.4569 16.0441 12.2531 15.552C12.1427 15.2855 12.0613 15.0086 12.0099 14.7261C11.9377 14.3294 12.2712 14 12.6744 14V14C13.0775 14 13.3945 14.3331 13.5064 14.7204C13.5331 14.8129 13.565 14.904 13.602 14.9933C13.7324 15.3082 13.9236 15.5943 14.1646 15.8354C14.4057 16.0764 14.6918 16.2676 15.0067 16.398C15.3216 16.5285 15.6591 16.5956 16 16.5956C16.3409 16.5956 16.6784 16.5285 16.9933 16.398C17.3082 16.2676 17.5943 16.0764 17.8354 15.8354C18.0764 15.5943 18.2676 15.3082 18.398 14.9933C18.435 14.904 18.4669 14.8129 18.4936 14.7204C18.6055 14.3331 18.9224 14 19.3256 14V14Z" fill="#1E4C2F"/>
</g>
<path d="M44.68 24H41.104V7.92H44.68V24ZM52.1919 24.24C50.8159 24.24 49.6799 23.984 48.7839 23.472C47.8879 22.96 47.2239 22.24 46.7919 21.312C46.3599 20.368 46.1439 19.264 46.1439 18C46.1439 16.704 46.3839 15.584 46.8639 14.64C47.3599 13.696 48.0639 12.968 48.9759 12.456C49.8879 11.944 50.9679 11.688 52.2159 11.688C53.4319 11.688 54.4639 11.912 55.3119 12.36C56.1759 12.808 56.8319 13.432 57.2799 14.232C57.7439 15.016 57.9759 15.936 57.9759 16.992C57.9759 17.328 57.9519 17.656 57.9039 17.976C57.8719 18.296 57.8399 18.56 57.8079 18.768H47.7279V16.584H54.7359L54.4959 16.776C54.5599 16.312 54.5039 15.928 54.3279 15.624C54.1679 15.304 53.8959 15.064 53.5119 14.904C53.1439 14.728 52.6719 14.64 52.0959 14.64C51.1039 14.64 50.4239 14.864 50.0559 15.312C49.6879 15.76 49.5039 16.4 49.5039 17.232V18.288C49.5039 18.96 49.5759 19.504 49.7199 19.92C49.8799 20.336 50.1599 20.64 50.5599 20.832C50.9599 21.024 51.5199 21.12 52.2399 21.12C52.9599 21.12 53.4799 21.04 53.7999 20.88C54.1359 20.704 54.3039 20.432 54.3039 20.064V19.92H57.8559V20.16C57.8559 21.024 57.6239 21.76 57.1599 22.368C56.6959 22.976 56.0399 23.44 55.1919 23.76C54.3439 24.08 53.3439 24.24 52.1919 24.24ZM71.5249 24H67.9249V17.064C67.9249 16.232 67.7569 15.648 67.4209 15.312C67.0849 14.96 66.4609 14.784 65.5489 14.784C64.9729 14.784 64.5009 14.856 64.1329 15C63.7809 15.144 63.5169 15.392 63.3409 15.744C63.1649 16.08 63.0769 16.552 63.0769 17.16H62.5729L62.2849 14.04H62.9809C63.2049 13.576 63.4929 13.168 63.8449 12.816C64.2129 12.464 64.6609 12.192 65.1889 12C65.7169 11.792 66.3329 11.688 67.0369 11.688C68.0929 11.688 68.9489 11.896 69.6049 12.312C70.2609 12.728 70.7409 13.296 71.0449 14.016C71.3649 14.72 71.5249 15.496 71.5249 16.344V24ZM63.0769 24H59.5009V11.928H62.8369V15.336L63.0769 15.456V24ZM85.4577 24H81.8577V17.064C81.8577 16.232 81.6897 15.648 81.3537 15.312C81.0177 14.96 80.3937 14.784 79.4817 14.784C78.9057 14.784 78.4337 14.856 78.0657 15C77.7137 15.144 77.4497 15.392 77.2737 15.744C77.0977 16.08 77.0097 16.552 77.0097 17.16H76.5057L76.2177 14.04H76.9137C77.1377 13.576 77.4257 13.168 77.7777 12.816C78.1457 12.464 78.5937 12.192 79.1217 12C79.6497 11.792 80.2657 11.688 80.9697 11.688C82.0257 11.688 82.8817 11.896 83.5377 12.312C84.1937 12.728 84.6737 13.296 84.9777 14.016C85.2977 14.72 85.4577 15.496 85.4577 16.344V24ZM77.0097 24H73.4337V11.928H76.7697V15.336L77.0097 15.456V24ZM89.1365 28.08C88.7365 28.08 88.3285 28.048 87.9125 27.984C87.4965 27.936 87.1685 27.88 86.9285 27.816V24.84H88.9445C89.4085 24.84 89.7445 24.784 89.9525 24.672C90.1765 24.576 90.3765 24.336 90.5525 23.952L91.1045 22.776L90.8645 23.736L85.7045 11.928H89.7125L91.6805 16.968L92.5445 19.296H92.8085L93.5525 16.968L95.2565 11.928H99.2645L93.8885 24.84C93.5525 25.656 93.1605 26.304 92.7125 26.784C92.2805 27.264 91.7765 27.6 91.2005 27.792C90.6245 27.984 89.9365 28.08 89.1365 28.08ZM102.71 24H98.1977V19.752H102.71V24Z" fill="#0B0F0E"/>
<defs>
<clipPath id="clip0_484_26566">
<rect width="32" height="32" rx="10" fill="white"/>
</clipPath>
</defs>
</svg>
