<svg width="20" height="21" viewBox="0 0 20 21" fill="none" xmlns="http://www.w3.org/2000/svg">
<path d="M11.4421 3.42512L12.9087 6.35845C13.1087 6.76678 13.6421 7.15845 14.0921 7.23345L16.7504 7.67512C18.4504 7.95845 18.8504 9.19178 17.6254 10.4084L15.5587 12.4751C15.2087 12.8251 15.0171 13.5001 15.1254 13.9834L15.7171 16.5418C16.1837 18.5668 15.1087 19.3501 13.3171 18.2918L10.8254 16.8168C10.3754 16.5501 9.63375 16.5501 9.17541 16.8168L6.68375 18.2918C4.90041 19.3501 3.81708 18.5584 4.28375 16.5418L4.87541 13.9834C4.98375 13.5001 4.79208 12.8251 4.44208 12.4751L2.37541 10.4084C1.15875 9.19178 1.55041 7.95845 3.25041 7.67512L5.90875 7.23345C6.35041 7.15845 6.88375 6.76678 7.08375 6.35845L8.55041 3.42512C9.35041 1.83345 10.6504 1.83345 11.4421 3.42512Z" fill="#FFA439"/>
</svg>
